<svg width="86" height="83" viewBox="0 0 86 83" fill="none" xmlns="http://www.w3.org/2000/svg">
<path d="M84.8112 77.1251C78.6241 66.4285 69.0894 58.7585 57.9622 55.1226C63.4662 51.846 67.7425 46.8533 70.1343 40.9111C72.5261 34.969 72.9013 28.4059 71.2021 22.23C69.503 16.054 65.8234 10.6065 60.7286 6.72407C55.6338 2.84167 49.4055 0.739014 43 0.739014C36.5945 0.739014 30.3662 2.84167 25.2714 6.72407C20.1766 10.6065 16.497 16.054 14.7979 22.23C13.0987 28.4059 13.4739 34.969 15.8657 40.9111C18.2575 46.8533 22.5338 51.846 28.0378 55.1226C16.9106 58.7544 7.37594 66.4244 1.18875 77.1251C0.961856 77.495 0.811358 77.9067 0.746137 78.3358C0.680916 78.7648 0.702293 79.2026 0.809006 79.6233C0.91572 80.044 1.10561 80.439 1.36747 80.7851C1.62933 81.1312 1.95785 81.4214 2.33366 81.6384C2.70948 81.8555 3.12496 81.9951 3.5556 82.049C3.98623 82.1029 4.42331 82.07 4.84103 81.9523C5.25874 81.8345 5.64865 81.6343 5.98773 81.3634C6.32682 81.0925 6.60821 80.7565 6.81531 80.3751C14.4691 67.1476 27.9972 59.2501 43 59.2501C58.0028 59.2501 71.5309 67.1476 79.1847 80.3751C79.3918 80.7565 79.6732 81.0925 80.0123 81.3634C80.3513 81.6343 80.7412 81.8345 81.159 81.9523C81.5767 82.07 82.0138 82.1029 82.4444 82.049C82.875 81.9951 83.2905 81.8555 83.6663 81.6384C84.0421 81.4214 84.3707 81.1312 84.6325 80.7851C84.8944 80.439 85.0843 80.044 85.191 79.6233C85.2977 79.2026 85.3191 78.7648 85.2539 78.3358C85.1886 77.9067 85.0381 77.495 84.8112 77.1251ZM20.25 30.0001C20.25 25.5005 21.5843 21.1021 24.0841 17.3608C26.5839 13.6196 30.1369 10.7037 34.2939 8.98181C38.451 7.25991 43.0252 6.80939 47.4383 7.6872C51.8514 8.56501 55.905 10.7317 59.0867 13.9134C62.2683 17.095 64.435 21.1487 65.3129 25.5618C66.1907 29.9748 65.7402 34.5491 64.0183 38.7061C62.2964 42.8631 59.3804 46.4162 55.6392 48.916C51.898 51.4158 47.4995 52.7501 43 52.7501C36.9683 52.7436 31.1855 50.3447 26.9204 46.0796C22.6554 41.8146 20.2565 36.0318 20.25 30.0001Z" fill="white"/>
</svg>
