<svg xmlns="http://www.w3.org/2000/svg" version="1.1" xmlns:xlink="http://www.w3.org/1999/xlink" xmlns:svgjs="http://svgjs.dev/svgjs" width="1000" height="1000"><svg width="1000" height="1000" viewBox="0 0 1000 1000" fill="none" xmlns="http://www.w3.org/2000/svg">
<rect width="1000" height="1000" rx="25" fill="black"></rect>
<rect width="859" height="765" transform="translate(71 117)" fill="black"></rect>
<path d="M349.786 571.591L382.108 559.193L394.229 517.866L390.189 505.469L353.827 521.999L297.261 497.202L228.573 476.539L159.887 484.804L119.484 517.866L111.403 571.591L135.645 641.848L159.887 691.44L204.332 724.501L240.695 716.235L289.18 662.511V608.786L273.018 571.591V621.183L240.695 662.511H188.17L147.766 621.183L159.887 559.193L220.493 530.264L289.18 546.796L349.786 571.591Z" fill="white"></path>
<path d="M648.225 571.591L615.903 559.193L603.781 517.866L607.822 505.469L644.184 521.999L700.75 497.202L769.437 476.539L838.123 484.804L878.527 517.866L886.608 571.591L862.365 641.848L838.123 691.44L793.678 724.501L757.316 716.235L708.831 662.511V608.786L724.993 571.591V621.183L757.316 662.511H809.84L850.244 621.183L838.123 559.193L777.518 530.264L708.831 546.796L648.225 571.591Z" fill="white"></path>
<path d="M701.776 419.885L678.21 427.795L676.493 414.558L673.164 393.413L692.775 347.702L721.597 297.666L765.744 264.38L806.652 261.126L839.796 287.753L862.981 341.866L875.219 384.018L867.004 427.795L841.571 443.165L785.035 438.934L756.571 407.828L746.224 377.334L772.497 406.048L813.107 412.059L843.517 382.945L845.015 336.622L805.155 307.449L754.739 324.293L723.729 371.937L701.776 419.885Z" fill="white"></path>
<path d="M290.026 419.885L313.593 427.795L315.309 414.558L318.64 393.413L299.027 347.702L270.207 297.666L226.059 264.38L185.15 261.126L152.008 287.753L128.822 341.866L116.583 384.018L124.8 427.795L150.232 443.165L206.768 438.934L235.231 407.828L245.58 377.334L219.306 406.048L178.696 412.059L148.285 382.945L146.787 336.622L186.648 307.449L237.063 324.293L268.073 371.937L290.026 419.885Z" fill="white"></path>
<path d="M382.573 685.821L423.252 653.081L414.406 649.196L398.245 616.134L382.573 624.4L345.721 649.196L311.37 700.539L301.274 748.381L309.357 789.708L337.64 826.903L398.245 855.831L441.045 843.433L468.248 815.887L477.116 787.065L470.971 726.671L462.89 707.007L441.045 694.656L450.769 727.517V773.176L420.218 802.66H382.573L352.479 773.176L344.238 727.517L382.573 685.821Z" fill="white"></path>
<path d="M619.128 685.821L578.449 653.081L587.295 649.196L603.457 616.134L619.128 624.4L655.982 649.196L690.331 700.539L700.427 748.381L692.344 789.708L664.061 826.903L603.457 855.831L560.658 843.433L533.453 815.887L524.585 787.065L530.731 726.671L538.811 707.007L560.658 694.656L550.933 727.517V773.176L581.483 802.66H619.128L649.223 773.176L657.463 727.517L619.128 685.821Z" fill="white"></path>
<path d="M365.32 252.919V207.459L385.522 195.061H429.967L498.652 207.459L567.34 195.061H611.783L631.985 207.459V252.919L676.429 294.246L652.187 352.103L664.308 443.023L631.985 476.085L591.581 488.482L583.501 525.677L591.581 567.004L583.501 600.066L567.34 633.127L543.097 645.526H498.652H454.208L429.967 633.127L413.805 600.066L405.724 567.004L413.805 525.677L405.724 488.482L365.32 476.085L332.997 443.023L345.118 352.103L320.875 294.246L365.32 252.919Z" fill="white"></path>
<path d="M313.402 224.448L325.523 253.377L345.725 236.847V191.387L313.402 224.448Z" fill="white"></path>
<path d="M684.577 224.448L672.456 253.377L652.256 236.847V191.387L684.577 224.448Z" fill="white"></path>
<path d="M357.854 150.062L361.895 183.123L374.016 174.858H398.259L390.178 150.062L337.652 117L357.854 150.062Z" fill="white"></path>
<path d="M628.564 150.062L624.524 183.123L612.403 174.858H588.16L596.241 150.062L648.766 117L628.564 150.062Z" fill="white"></path>
</svg><style>@media (prefers-color-scheme: light) { :root { filter: none; } }
@media (prefers-color-scheme: dark) { :root { filter: none; } }
</style></svg>